<?xml version="1.0" encoding="utf-8"?>
<!-- Generated by IcoMoon.io -->
<!DOCTYPE svg PUBLIC "-//W3C//DTD SVG 1.1//EN" "http://www.w3.org/Graphics/SVG/1.1/DTD/svg11.dtd">
<svg version="1.1" xmlns="http://www.w3.org/2000/svg" xmlns:xlink="http://www.w3.org/1999/xlink" width="512" height="512" viewBox="0 0 512 512">
<g id="icomoon-ignore">
</g>
<path d="M389.5 189q-5.5 0-10.5 0.5t-10.5 1.5q-6-20.5-18.5-38t-29.75-30.25-38-19.75-43.75-7q-28.5 0-53.25 10.5t-43.25 28.5-29.25 42.25-10.75 51.75q0 5 0.5 9.75t1 9.75q-2.5-0.5-5.25-0.75t-5.75-0.25q-38 0-65.25 26.75t-27.25 64.25 27.25 64 65.25 26.5h297q25.5 0 47.75-9.5t38.75-25.75 26.25-38 9.75-46.75-9.75-46.75-26.25-38-38.75-25.75-47.75-9.5v0zM291 299.5q-4.5 7-15.75 19.25t-22.75 24.75-20.75 22-9.75 10.5q-2 2.5-7 5t-10-1q-1.5-1-3-3t-1.5-6q0-3.5 1.25-6.75t1.25-3.75l26.5-58.5q-3.5-1.5-9.25-3.75t-10.75-4.75l-2-0.5q-5-2-10-5.5t-5-10q0-3.5 1.5-7.25t5-8.75q4.5-6.5 15.75-19t22.75-24.75 20.75-21.75 9.75-10.5q2-2.5 7-5.25t10 0.75q1.5 1 3 3.25t1.5 5.75q0 4-1.25 7.25l-1.25 3.25-26.5 59q4 1 9.5 3.5t10.5 4.5l2 1q5 2 10 5.25t5 10.25q0 3-1.5 7t-5 8.5v0z"></path>
</svg>
