<?xml version="1.0" encoding="utf-8"?>
<!-- Generated by IcoMoon.io -->
<!DOCTYPE svg PUBLIC "-//W3C//DTD SVG 1.1//EN" "http://www.w3.org/Graphics/SVG/1.1/DTD/svg11.dtd">
<svg version="1.1" xmlns="http://www.w3.org/2000/svg" xmlns:xlink="http://www.w3.org/1999/xlink" width="512" height="512" viewBox="0 0 512 512">
<g id="icomoon-ignore">
</g>
<path d="M396.5 213q-4 4-23.25 22.5t-40.75 39-39 37l-17.5 16.5q-4 4.5-9.25 6.5t-10.75 2-10.75-2-9.25-6.5l-17.5-16.5t-39-37-40.75-39-23.25-22.5q-7.5-8-7.75-20.5t7.75-21q8.5-8.5 19.25-9t21.25 9l100 96 100-96q10.5-9.5 21.25-9t19.25 9q8 8.5 7.75 21t-7.75 20.5v0z"></path>
</svg>
