<?xml version="1.0" encoding="utf-8"?>
<!-- Generated by IcoMoon.io -->
<!DOCTYPE svg PUBLIC "-//W3C//DTD SVG 1.1//EN" "http://www.w3.org/Graphics/SVG/1.1/DTD/svg11.dtd">
<svg version="1.1" xmlns="http://www.w3.org/2000/svg" xmlns:xlink="http://www.w3.org/1999/xlink" width="512" height="512" viewBox="0 0 512 512">
<g id="icomoon-ignore">
</g>
<path d="M253 14q-49 1-91.5 20t-74.25 51.25-49.5 75.5-17.25 92.25q0.5 48.5 19.75 91.25t51.5 74.25 75.5 49.25 91.75 17.25q49-0.5 91.5-19.5t74.25-51.5 49.5-75.75 17.25-91.75q-0.5-49-19.75-91.5t-51.5-74-75.5-49.5-91.75-17.5v0zM252 393h-1q-15-0.5-24.5-10.5t-9-24.5q0-14.5 9.75-24t24.25-9.5h1.5q15.5 0.5 25 10.25t9 25.25q-0.5 14.5-10.25 23.75t-24.75 9.25v0zM336.5 225.5q-3.5 5.5-11 11.75t-17 13.75l-14.5 10q-6 4.5-9.5 8.75t-5 8.75q-1 3.5-1.5 5.75t-0.5 8.75l-0.5 2.5h-54.5v-4.5q0.5-14.5 1.75-23.75t7.25-16.25q9.5-10.5 24.75-21.25t16.25-11.25q3-2.5 5.5-5t4.5-5q4-6 6-11t2-9.5q0-6.5-1.75-12.25t-5.75-11.25q-3.5-5-10.25-7.5t-16.75-2.5-16.75 3-10.75 9.5-6.25 13.5-2.25 14v2.5h-56.5v-2.5q1-26 10.25-44.75t26.75-29.75q10.5-7 24-10.5t29-3.5q20.5 0 37.75 5t31.25 15q13.5 10 20.5 24.75t7 34.25q0 11-3.5 21.25t-10 19.25v0z"></path>
</svg>
