<?xml version="1.0" encoding="utf-8"?>
<!-- Generated by IcoMoon.io -->
<!DOCTYPE svg PUBLIC "-//W3C//DTD SVG 1.1//EN" "http://www.w3.org/Graphics/SVG/1.1/DTD/svg11.dtd">
<svg version="1.1" xmlns="http://www.w3.org/2000/svg" xmlns:xlink="http://www.w3.org/1999/xlink" width="512" height="512" viewBox="0 0 512 512">
<g id="icomoon-ignore">
</g>
<path d="M394 142q-24 0-45.5 9.25t-37.5 25.25-25.25 37.5-9.25 46q0 18.5 5.5 35.25t15 31.25h-82q9.5-14.5 15-31.25t5.5-35.25q0-24.5-9.25-46t-25.25-37.5-37.5-25.25-45.5-9.25q-24.5 0-46 9.25t-37.5 25.25-25.25 37.5-9.25 46q0 24 9.25 45.5t25.25 37.5 37.5 25.25 46 9.25h276q24.5 0 46-9.25t37.5-25.25 25.25-37.5 9.25-45.5q0-24.5-9.25-46t-25.25-37.5-37.5-25.25-46-9.25v0zM51 260q0-27.5 19.5-47t47.5-19.5q27.5 0 47 19.5t19.5 47-19.5 47-47 19.5q-28 0-47.5-19.5t-19.5-47v0zM394 326.5q-27.5 0-47-19.5t-19.5-47 19.5-47 47-19.5q28 0 47.5 19.5t19.5 47-19.5 47-47.5 19.5v0z"></path>
</svg>
