<?xml version="1.0" encoding="utf-8"?>
<!-- Generated by IcoMoon.io -->
<!DOCTYPE svg PUBLIC "-//W3C//DTD SVG 1.1//EN" "http://www.w3.org/Graphics/SVG/1.1/DTD/svg11.dtd">
<svg version="1.1" xmlns="http://www.w3.org/2000/svg" xmlns:xlink="http://www.w3.org/1999/xlink" width="512" height="512" viewBox="0 0 512 512">
<g id="icomoon-ignore">
</g>
<path d="M396.5 286.5q-4-4-23.25-22.5t-40.75-39.25-39-37.25l-17.5-16.5q-4-4-9.25-6.25t-10.75-2.25-10.75 2.25-9.25 6.25l-17.5 16.5t-39 37.25-40.75 39.25-23.25 22.5q-7.5 8-7.75 20.25t7.75 21.25q8.5 8.5 19.25 8.75t21.25-8.75l100-96 100 96q10.5 9 21.25 8.75t19.25-8.75q8-9 7.75-21.25t-7.75-20.25v0z"></path>
</svg>
