<?xml version="1.0" encoding="utf-8"?>
<!-- Generated by IcoMoon.io -->
<!DOCTYPE svg PUBLIC "-//W3C//DTD SVG 1.1//EN" "http://www.w3.org/Graphics/SVG/1.1/DTD/svg11.dtd">
<svg version="1.1" xmlns="http://www.w3.org/2000/svg" xmlns:xlink="http://www.w3.org/1999/xlink" width="512" height="512" viewBox="0 0 512 512">
<g id="icomoon-ignore">
</g>
<path d="M367.5 330.5l-71-81 71-80.5q9-9 9-21.75t-9-21.75-21.75-9-21.75 9l-68 77.5-68-77.5q-9-9-21.75-9t-21.75 9-9 21.75 9 21.75l71 80.5-71 81q-9 9-9 21.5t9 21.5 21.75 9 21.75-9l68-77.5 68 77.5q9 9 21.75 9t21.75-9 9-21.5-9-21.5v0z"></path>
</svg>
